<?xml version="1.0" encoding="utf-8"?>
<!-- Generator: Adobe Illustrator 20.0.0, SVG Export Plug-In . SVG Version: 6.00 Build 0)  -->
<svg version="1.1" id="Layer_1" xmlns="http://www.w3.org/2000/svg" xmlns:xlink="http://www.w3.org/1999/xlink" x="0px" y="0px"
	 viewBox="0 0 612 792" style="enable-background:new 0 0 612 792;" xml:space="preserve">
<style type="text/css">
	.st0{fill:#FEFEFE;}
	.st1{fill:#6F9BEC;}
	.st2{fill:#FDFDFD;}
	.st3{fill:#D7D7D7;}
	.st4{fill:#FE8A60;}
	.st5{fill:#BFCFDF;}
	.st6{fill:#C7C7C7;}
	.st7{fill:#BEBEBB;}
	.st8{fill:#D9E5FA;}
	.st9{fill:#F4F5F4;}
	.st10{fill:#807E82;}
	.st11{fill:#FEDED3;}
	.st12{fill:#F7F9E8;}
</style>
<g>
	<path class="st0" d="M583,262c0,18.7,0,37.3,0,56c-10.6,0-21.3,0-31.9,0c0.2-0.9,0.4-1.9,0.7-2.8c0.6-1.9,0.2-3.6-1.5-4.8
		c-1.5-1-3.2-1-4.6,0c-1.7,1.2-2.1,2.9-1.4,4.8c0.3,0.9,0.9,1.8,0.5,2.8c-25.3,0-50.6-0.1-76,0.2c-4.2,0-4.9-1.4-4.9-5.2
		c0.2-17,0.1-34,0.1-51C503.7,262,543.4,262,583,262z"/>
	<path class="st0" d="M583,485c0,18.3,0,36.7,0,55c-39.6,0-79.3,0-118.9,0c0-18.3,0-36.6,0-54.9C503.7,485.1,543.4,485,583,485z"/>
	<path class="st0" d="M583,430c0,18,0,36,0,54c-39.6,0-79.3-0.1-118.9-0.1c0-13.3,0.1-26.6,0.1-39.9c7.6-1.5,10.3-6.3,7.9-13.9
		C509,430.1,546,430,583,430z"/>
	<path class="st0" d="M583,395c0,11.3,0,22.7,0,34c-37,0-74.1,0.1-111.1,0.1c-0.6-0.1-1.2-0.2-1.8-0.3c-0.7-3.3-3.1-4-6-4
		c-0.1-1.6-0.2-3.2-0.3-4.9c4.8-13.2,9.6-26.5,14.4-39.7c2.2,0,4.5-1,6.5,1.1c0.9,1,2.9,1.1,3.7,0.3c4.4-4.5,9.9-2.4,15-2.7
		c4.1-0.3,8.3-1,12.2,2.1c2.2,1.8,5.2-0.6,5.4-3.7c0.1-1.3-1.4-2.4-0.3-3.7c15.9,0,31.7,0,47.6,0c0.5,1,1.1,2,1.4,3.1
		c1.6,6.7,6.8,12.5,4.4,20.1c-0.5,1.6,1.2,3,2.9,3.4c1.8,0.5,3.1-0.4,4.3-1.7C582.4,397.7,581.2,395.7,583,395z"/>
	<path class="st1" d="M478.3,380.3c-4.8,13.2-9.6,26.5-14.4,39.7c-1.2,3.3-1.4,7-3.7,9.9c-0.4,1.4-0.8,2.8-1,4.2
		c-0.5,2.7-2,4.4-5.2,3c-3.1-2.2,1.1-5.1-0.7-7.4c0-0.3-0.1-0.6-0.2-0.8c-5.7-18.3-11.3-36.7-17-55c-0.1-0.3-0.1-0.7-0.2-1
		c-0.1-0.4-0.2-0.7-0.4-1.1c-0.3-1-0.7-2-1-3c-1.8-6-3.6-12.1-5.4-18.1c-0.6-2.1-1.5-3.5-3.8-2c-8.5,5.8-17.4,11-25.1,17.8
		c-2.1,2.5-4.3,2.5-6.4,0c-0.8-2.7-2.2-5.1-4-7.3c-7-8.1-13.9-16.3-20.8-24.4c-1.2-2.6-4.3-2.9-5.9-5c-1.9-5.4-7.3-7.3-11-10.9
		c-0.4-0.3-0.8-0.6-1.2-0.9c-1.4-1.3-2.8-2.7-4.3-4c-9.7-7.8-7.8-10.1-12.9,3.9c-0.2,0.3-0.4,0.7-0.6,1c-3.1,7.6-7,15-9.1,23l0-0.1
		c-0.8,0.2-0.9,0.8-1,1.5c-0.7,1.1-1.4,2.1-1.1,3.5c0,0,0.1-0.1,0.1-0.1c-0.3,0.2-0.5,0.5-0.8,0.7c-3.4,8.5-6.8,16.9-10.3,25.4
		c-0.1,0.2-0.2,0.5-0.3,0.7c-0.8,1.2-1.9,2.4-1.4,4c0.9,2.7-1.3,3.8-2.8,4.4c-2,0.8-3.4-1.4-3.9-2.8c-0.8-2.6-2.5-4.1-4.5-5.4
		c-0.4-0.3-0.7-0.6-1.1-0.9c-3-2.7-6.1-5.4-9.1-8c-0.6-0.6-1.1-1.1-1.7-1.7c-3.4-2.2-5.3-6.3-9.7-7.3c-9.9-2.2-19.5,0.5-29.1,2
		c-1.7,1.2-3.3,1.3-5,0c-0.3-0.4-0.6-0.9-1-1c-7.8-2-15.6-3.9-23.4-5.9c-1.5-0.4-2.9,1.9-4.5,0.1c-3.4-3.7-8.3-4.6-12.6-6.6
		c-1.6-0.5-3-2.1-5-1.4c-7.2-5.2-11.1-6-16.7,0.6c-0.4,0.5-1.1,0.8-1.5,1.3c-6.5,6.2-13.2,12.2-19.4,18.6c-1.5,1.6-2.2,4.8-4.6,4.5
		c-2.1-0.2-3.6-2.5-3.2-5.3c0.1-0.6-0.9-1.4-1.4-2c-5.1-6.3-10.2-12.7-15.4-19c-0.6-0.6-1.1-1.3-1.7-1.9c-1.1-1.5-2.1-3-3.2-4.4
		c-4.4-5.7-5.4-6-12.2-3.3c-5.7,2.2-11.4,4.5-17.2,6.6c-2.7,1-4.8,2.4-6,4.9c-4.2,8.7-8.3,17.4-12.5,26.1c-1.1,1-1.2,2,0.4,2.4
		c2,0.5,4.1,0.8,6.1,1.2c-6.5-1.1-10.3,1.6-12.5,7.9c-2.1,6-5.9,11.3-7.5,17.6c-1.5,0.6-3.1,1.1-4.6,0c-4.5-7.8-12.6-11-19.6-15.8
		c-0.2-0.9-0.9-1.1-1.7-1.4c-1.9-1.4-3.3-3.6-6.2-3.4c-2,0.1-3.3-1.7-3.8-3.3c-0.5-1.4,1.3-2.1,2.1-3c1.9-2,2.7,0.7,4.1,1.1
		c0.3,0.3,0.6,0.6,0.9,0.9c0.9,3.3,3.9,4.2,6.5,5.4c0.4,0.8,0.8,1.5,1.8,1.6c4.8,3.5,9.6,7,14.4,10.5c2.5,1.9,4.3,1.8,5.7-1.4
		c2.4-5.4,5.1-10.8,7.7-16.1c0.1-0.3,0.2-0.6,0.3-1c0.3-0.6,0.7-1.3,1-1.9c0.8-0.5,0.9-1.3,1-2.1c4.1-8.2,8.1-16.3,12.2-24.5
		c0.7-1.3,1.2-2.6,0.7-4.3c-0.6-2.5,1.1-4,3.1-4.2c10.6-1.2,20.2-5.2,29-10.9c3.1-2,4.3,0.2,5,1.7c2.1,4.8,5.8,8.4,9,12.3
		c0.6,0.7,1.1,1.3,1.7,2c4.7,6,9.3,12,14,18c2,2.5,3.9,2.5,6.2,0.3c5.8-5.6,11.8-11.2,17.7-16.7c2.8-2.6,5.6-5.1,6.9-8.8
		c1.6-1.5,3-2.1,4.8,0c1.3,1.6,2.8,3.2,5.3,3.1c6.1,2.7,12,5.7,18.3,8c9.4,3.5,19.2,6.5,29.1,7.7c11.8,1.5,23.7,1.5,35.1-3.2
		c2.3-1,3.1,0.9,3.9,2c3.1,4.2,7.3,7.2,11.2,10.5c0.3,1.2,1.4,1.4,2.3,1.9c3.3,3.7,7.3,6.7,11,9.9c1.7,1.5,2.7,1.5,3.6-0.8
		c2.7-6.9,6.3-13.4,8-20.6c1.2-1.1,2-2.3,2-4c4.4-9.7,8.6-19.5,12.1-29.5c0.1-0.2,0.2-0.4,0.3-0.6c2-4.4,5.1-8.5,4.5-13.8
		c-0.2-1.6,1.3-2.8,2.7-3.3c1.5-0.6,2.4,1,3.2,1.9c4.9,6,11.1,10.3,17.1,15c0.4,0.3,0.7,0.6,1.1,0.9c2.2,2,4.1,4.6,6.7,5.8
		c3.5,1.6,5.2,4.2,7.4,7.2c7.5,10,16,19.2,24.1,28.6c1.1,1.3,2.6,2.5,4.3,1.1c8.1-6.4,18.2-10.4,24.9-18.7c0.8-1,1.7-2.5,3.2-1.8
		c1.3,0.6,2.5,1.7,2.7,3.3c1.6,9.4,5.1,18.1,7.9,27.2c-0.2,1.1,0.4,2,0.9,2.8c5.4,17.6,10.7,35.3,16.1,52.9c3.3-5.5,5.7-10.8,7-16.4
		c0.9-0.7,0.9-1.7,0.9-2.7c3.3-6.1,5.2-12.8,7.4-19.3c0.9-2.7,1.9-5.4,2.8-8c0.4-0.8,0.8-1.6,1.2-2.4c0.1-0.5,0.2-1,0.4-1.5
		c1.3-1.5,1.5-3.6,1.9-5.2c1.8-7.2,7.4-13.2,6.1-21.3c-0.3-1.6,1.5-3.4,3.6-3.4c10,0,19.2-3,27.9-7.7c1.9-1,2.6-0.6,3.7,0.6
		c3.2,3.5,7.5,5.4,11.7,7.3c0.7,0.3,1.3,0.7,2,1c8.7,6.3,17.7,10.6,28.3,4c0.7-0.2,1.4-0.5,2.1-0.7c4.3-1.5,9-2.1,12.6-5.3
		c0.9-0.8,1.7-2.5,3.2-1.2c1.1,1,3.2,1.8,2.4,3.8c-0.8,2.3,0.1,3.8,1.6,5.2c0,2.7,0,5.3,0,8c-3-3.1-2.4-9.1-6.5-10.5
		c-3.9-1.4-8,1.8-11.9,3.3c-0.1,0.1-0.3,0.2-0.4,0.3c-0.9-0.2-1.7,0-2.2,0.7c-4.3,1.3-8.8,2-12.3,5.1c-1.6,1.4-2.6,0.9-3.7-0.3
		c-4.1-4.4-9.6-6.4-14.8-9c-0.7-0.3-1.3-0.7-2-1c-5.3-3.7-10.8-6.9-17.6-5.2c-6.3,1.6-12.4,3.6-18.7,5.2c-2.9,0.7-4.7,2.3-5.6,5
		c-2,5.8-4.1,11.6-6.1,17.4c-0.1,0.3-0.2,0.6-0.2,1c-0.6,1.4-1.1,2.8-1.7,4.1C478.9,378.8,478.6,379.6,478.3,380.3z"/>
	<path class="st2" d="M583,354c-1.6-1.4-2.4-2.9-1.6-5.2c0.7-2-1.3-2.9-2.4-3.8c-1.5-1.3-2.3,0.4-3.2,1.2c-3.6,3.3-8.3,3.8-12.6,5.3
		c-3.9-10.8-7.8-21.7-11.7-32.5c10.5,0,21.1,0,31.6,0C583,330.7,583,342.3,583,354z"/>
	<path class="st3" d="M583,262c-39.6,0-79.3,0-118.9,0c-0.4,0-0.8,0-1.1,0c-142.3,0-284.5,0-426.8,0c0-0.3,0-0.7,0-1
		c182.3,0,364.6,0,546.9,0C583,261.3,583,261.7,583,262z"/>
	<path class="st2" d="M564.2,355.1c0.1-0.1,0.2-0.2,0.4-0.3c3.9-1.5,8-4.7,11.9-3.3c4,1.4,3.5,7.4,6.5,10.5c0,10,0,20,0,30
		c-3.8,1.9-5.6,0.2-6.8-3.4C572.3,377.4,568.2,366.2,564.2,355.1z"/>
	<path class="st4" d="M564.2,355.1c4,11.2,8.1,22.3,11.9,33.5c1.3,3.7,3,5.4,6.8,3.4c0,1,0,2,0,3c-1.8,0.7-0.6,2.7-1.6,3.8
		c-1.2,1.3-2.5,2.2-4.3,1.7c-1.7-0.5-3.4-1.8-2.9-3.4c2.3-7.6-2.9-13.4-4.4-20.1c-0.3-1.1-0.9-2.1-1.4-3.1c0-0.3-0.1-0.5-0.3-0.8
		c-2-5.7-4-11.5-6-17.2C562.6,355,563.4,354.9,564.2,355.1z"/>
	<path class="st5" d="M464.1,540c39.6,0,79.3,0,118.9,0c0,0.3,0,0.7,0,1c-19.9,0-39.9,0.2-59.8-0.1c-5.1-0.1-7.1,1.3-6.2,6.3
		c0.1,0.6-0.2,1.3-0.3,2.5c-1.5-8.7-1.5-8.7-10.2-8.7c-18.4,0-36.9,0.1-55.3,0.1c0-0.4,0-0.8,0-1.3c3.9,0,7.9,0.1,11.8,0.1
		C463.3,540,463.7,540,464.1,540z"/>
	<path class="st3" d="M464.1,483.9c39.6,0,79.3,0.1,118.9,0.1c0,0.3,0,0.7,0,1c-39.6,0-79.3,0.1-118.9,0.1
		C464.1,484.7,464.1,484.3,464.1,483.9z"/>
	<path class="st3" d="M471.9,429.1c37,0,74.1-0.1,111.1-0.1c0,0.3,0,0.7,0,1c-37,0-74,0.1-110.9,0.1l-0.1-0.3
		C472,429.6,471.9,429.4,471.9,429.1z"/>
	<path class="st3" d="M583,319c-10.5,0-21.1,0-31.6,0c-0.1-0.4-0.2-0.7-0.3-1.1c10.6,0,21.3,0,31.9,0C583,318.3,583,318.7,583,319z"
		/>
	<path class="st6" d="M464.1,483.9c0,0.4,0,0.8,0,1.2c0,18.3,0,36.6,0,54.9c-0.4,0-0.8,0-1.2,0c0-15.8,0-31.6,0.1-47.3
		c0-8.1,0-7.9-8.2-7.8c-3.2,0.1-3.9,1.3-3.9,4.2c0.1,16.9,0.1,33.9,0.2,50.8c0,0.4,0,0.8,0,1.3c0.2,3.6-1.4,4.9-5.1,4.9
		c-24.6-0.1-49.2,0-73.7-0.1c-1.7,0-3.9,0.6-4.3-2.1c0-0.3,0-0.6,0.2-0.9c0.6,0,1.3,0.1,1.9,0.1c0.7,1.4,2,1,3.1,1
		c24,0,47.9-0.1,71.9-0.1c3.4,0.4,2.8-2.1,2.9-4c1.4-0.6,1.1-1.9,1.1-3c0-15.3,0-30.5,0-45.8c0-1.1,0.3-2.4-1-3.1c0-1-0.1-2-0.1-2.9
		c0-0.4,0-0.7-0.1-1.1c3.8,0,7.6-0.1,11.4,0c2.8,0.1,3.7-1,3.7-3.8c-0.2-12.1-0.2-24.2-0.2-36.3c0,0,0.3,0,0.3,0c0,0,0.4,0,0.4,0
		l0.4,0l0.3,0C464.2,457.3,464.1,470.6,464.1,483.9z"/>
	<path class="st5" d="M34.1,549.9c-0.2-9.9-0.2-9.9,9.9-9.9c105.3,0,210.5,0,315.8,0c2.3,0,4.7-0.1,7-0.1c0,0.4,0,0.8,0.1,1.2
		c-28.5,0-57,0-85.4-0.2c-3.5,0-4.9,1.1-4.5,4.6c0.2,1.5,0,3,0,4.5c0,0,0,0,0,0c-0.3-0.4-0.8-0.8-0.8-1.2c-1.2-7.8-1.2-7.8-9.2-7.8
		c-34.5,0-68.9,0-103.4,0c-8.6,0-8.6,0-10.1,8c-1.1-8-1.1-8-9.7-8c-33.3,0-66.6,0-99.9,0c-8.8,0-8.8,0-8.9,9
		C34.7,550,34.4,550,34.1,549.9z"/>
	<path class="st3" d="M367,485.1c-108.4,0-216.8,0-325.3-0.1c-1.9,0-3.9,0.5-6.4-0.7c1.9-0.1,3.2-0.2,4.5-0.2
		c108.9,0,217.8,0,326.8,0c0.5,0,1,0,1.5,0.1c-0.1,0.3-0.1,0.6-0.1,1C367.7,485,367.4,485,367,485.1z"/>
	<path class="st3" d="M329.4,318.3c-0.1,0.2-0.2,0.4-0.3,0.6c-97.6,0-195.2,0-293.1,0c1.1-1.6,2.4-0.9,3.4-0.9
		c95.2,0,190.3,0,285.5,0C326.4,318,327.9,318.2,329.4,318.3z"/>
	<path class="st3" d="M453,429c0.1,0.3,0.2,0.5,0.2,0.8c-2.3,0.1-4.7,0.2-7,0.2c-87.4,0-174.7,0-262.1,0c-2.3,0-4.7,0-7,0.1
		c0-0.4,0-0.8,0-1.2c2.3,0,4.7,0.1,7,0.1C273.8,429,363.4,429,453,429z"/>
	<path class="st7" d="M175,402c-2.1-1.3-4.5-1-6.8-1c-39.5,0-79,0-118.6,0c-2.1,0-4.3,0.8-6.2-1c6.4-2.2,12.9-0.3,19.4-1
		c1.5,1.2,3.1,0.6,4.6,0c6.8,0,13.6,0,20.4,0c26.7,0,53.5,0,80.2,0C170.7,399.1,174,398,175,402z"/>
	<path class="st7" d="M43.5,440c1.8-1.7,4.1-1,6.2-1c41.4-0.1,82.9,0,124.3,0c-1,2.5-3.2,2-5.1,2c-40.2,0-80.4,0-120.7,0
		C46.6,441,44.9,441.2,43.5,440z"/>
	<path class="st4" d="M137.8,341.2c-0.6-0.7-1.1-1.3-1.7-2c3.5-0.9,7.1-1.6,10.6-2.6c1.4-0.4,2.8-0.5,3.6-2.2
		c1.3-2.8,3.8-3.3,6.2-1.5c1.8,1.3,3.3,0.9,5.2,0.6c4.6-0.9,9.1-1.6,13.7-2.4c2.5-0.5,4.9-0.7,6.8-3.3c1.9-2.7,6.3-1.6,6.5,1.5
		c0.2,3.4,2.4,5.3,3.9,7.8c-2.4,0.1-3.9-1.5-5.3-3.1c-1.8-2.1-3.2-1.5-4.8,0c-0.2-0.2-0.4-0.7-0.7-0.7c-8.6,0.2-17.3,0.2-24.8,5.4
		c-1.7,1.2-3.4,2-5,0.7c-1.8-1.4-3.3-0.9-5.1-0.4C143.9,339.7,140.8,340.4,137.8,341.2z"/>
	<path class="st6" d="M462.9,262c0.4,0,0.8,0,1.1,0c0,17,0.1,34-0.1,51c0,3.7,0.7,5.2,4.9,5.2c25.3-0.2,50.6-0.1,76-0.2
		c-0.2,0.3-0.5,0.7-0.7,1c-25.1,0-50.2,0-75.4-0.1c-3.7,0-4.9,0.9-4.8,4.7c0.2,16.1,0,32.3,0,48.4c-0.3,0-0.6,0-1,0
		c0-17.6-0.1-35.3-0.1-52.9c0-0.4,0-0.8,0-1.2C462.9,299.3,462.9,280.6,462.9,262z"/>
	<path class="st4" d="M77.1,369.1c0,0.8-0.2,1.6-1,2.1c-5.4-2.2-10.3,0.5-15.4,1.8c-0.6,0.3-1.2,0.7-1.8,1c-4,2.4-8,4.8-12,7.2
		c-0.9-0.2-1.4-0.8-1.7-1.6c2.7-1.8,5.9-3,8.2-5.4c0.6-0.3,1.1-0.6,1.7-0.9c2.9-1.4,5.6-2.5,6.4-6.5c0.5-2.7,4-3.7,5.9-1.3
		C70.1,368.6,73.8,368.1,77.1,369.1z"/>
	<path class="st3" d="M462.9,317.9c0,0.4,0,0.8,0,1.2c-35,0-70-0.1-105-0.1c-0.4-0.3-0.7-0.6-1.1-0.9c30.7-0.1,61.4-0.1,92.2-0.2
		C453.6,318,458.3,317.9,462.9,317.9z"/>
	<path class="st4" d="M317,348.5c0.1,1.7-0.8,2.9-2,4c-2.4,1.4-4.8,2.6-5.4,5.9c-0.3,1.9-2.3,3.2-4.3,2.5c-5.1-1.9-8.8,1.3-12.9,3.1
		c-0.9-0.4-2-0.7-2.3-1.9c2.8-1.1,5.5-2.1,8.3-3.2c1.7-0.6,3.4-1,3.9-3.3c0.3-1.3,1.6-2.7,2.8-2.4
		C310.4,354.6,313.1,350.1,317,348.5z"/>
	<path class="st4" d="M368,485c0-0.3,0-0.6,0.1-1c26.6,0,53.2,0,79.7,0c0,0.4,0,0.7,0.1,1.1C421.3,485.1,394.6,485,368,485L368,485z
		"/>
	<path class="st8" d="M453.9,437.2c3.1,1.4,4.7-0.4,5.2-3c0.3-1.4,0.6-2.8,1-4.2c2.5-0.2,2.9,1.3,2.9,3.4c-0.1,3.6,0,7.1,0.1,10.7
		c0,0-0.3,0-0.3,0C458.2,443.9,454.8,442.2,453.9,437.2z"/>
	<path class="st7" d="M41.1,402c0,12.1-0.1,24.2-0.1,36.3c-3.4-2.1-2.5-6-2.3-8.6c0.5-7.7,0-15.5,0.3-23.2
		C39.1,404.7,38.9,402.8,41.1,402z"/>
	<path class="st4" d="M41.6,381.8c0.8,0.2,1.5,0.5,1.7,1.4c-1.7,1.6-4.3,2.2-4.6,5.3c-0.2,2.2-2.5,3-4.6,2.5c-2.3-0.5-3.4-2.1-3-4.4
		c0.4-2.2,1.9-3.8,4.1-3.4C37.7,383.7,39.7,383.2,41.6,381.8z"/>
	<path class="st9" d="M34.1,549.9c0.3,0,0.6,0.1,0.9,0.1c2.6,0,4.6,6.1,7.9,0.6c0.4-0.7,0.9,1.5,1.2,2.5c0,1.2,0,2.5,0,3.7
		c-0.3,1.2,0.3,4-2.1,1.3c-1.3-1.5-2.5-1.4-3.9-0.6c-1.1,0.6-2.2,1.9-3.4,0.3c-1-1.3-0.6-2.2,0.9-3.1c1.4-0.8,0.8-2.1-0.7-2.2
		C32,552.5,34.6,550.7,34.1,549.9z"/>
	<path class="st9" d="M287.1,556.9c-0.8,2.5-1,2.7-2.1,1.3c-1.3-1.6-2.5-1.4-3.9-0.6c-1.1,0.6-2.2,1.9-3.4,0.4
		c-1-1.3-0.7-2.2,0.9-3.1c1.4-0.8,0.9-2.1-0.6-2.2c-2.9-0.2-0.3-2-1-2.8c0,0,0,0,0,0c1.9-0.4,2.9,1.1,4.3,2c1.2,0.8,2.3,1.5,3.8-0.2
		c2.4-2.7,1.8,0.2,2.1,1.3C287.1,554.4,287.1,555.6,287.1,556.9z"/>
	<path class="st9" d="M407.1,556.9c-0.3,1.2,0.3,4-2.1,1.3c-1.3-1.5-2.5-1.4-3.9-0.6c-1.1,0.6-2.2,1.9-3.4,0.3c-1-1.3-0.7-2.3,1-3
		c1.4-0.6,0.6-2-0.2-2.2c-1.3-0.2-2.5-0.1-1.3-1.8c0.9-1.3,1.8-0.8,2.9,0.1c1.7,1.4,3.5,3.6,5.3-0.1c0.4-0.8,0.8-0.5,1.7,2.2
		C407.1,554.4,407.1,555.6,407.1,556.9z"/>
	<path class="st9" d="M158,555c0.7-4.7,5.4-2.7,7.9-4.1c1.7-0.9,1.5,3,1.1,5.1c-0.7,0.1-1.4,0.3-2.2,0.4c0.1,0.1,0.1,0.3,0.2,0.4
		c0.8,0.3,1.5-0.1,1.9-0.8c1.9,2.1-1.1,2.1-1.3,3.3c-3.2-0.7-6.8-0.8-9.6-2.3C154.6,556.3,156.7,555.2,158,555
		c0.1,0.5,0.2,0.9,0.4,1.3c0.1-0.1,0.2-0.2,0.4-0.3C158.5,555.7,158.3,555.3,158,555z"/>
	<path class="st9" d="M530,556c1.9,2.1-1.1,2.1-1.3,3.3c-3.2-0.7-6.8-0.8-9.6-2.3c-1.4-0.7,0.7-1.8,1.9-2c0.1,0.4,0.3,0.9,0.4,1.3
		c0.1-0.1,0.2-0.2,0.4-0.3c-0.2-0.4-0.5-0.7-0.7-1.1c0.7-4.7,5.4-2.7,7.9-4.1C530.6,550,530.4,554,530,556c-0.7,0.1-1.5,0.3-2.2,0.4
		c0.1,0.1,0.1,0.3,0.2,0.4C528.9,557,529.5,556.7,530,556z"/>
	<path class="st4" d="M367,485.1c0.3,0,0.7,0,1,0c0,0-0.1-0.1-0.1-0.1c0,19.3,0.1,38.7,0.1,58c-0.1,0.3-0.2,0.6-0.2,0.9
		c-1.4-0.5-0.7-1.9-1.1-2.7c0-0.4,0-0.8-0.1-1.2C366.9,521.6,367,503.3,367,485.1z"/>
	<path class="st10" d="M376.7,556c1.4-0.6,0-4,3-3.1c2.5,0.8,1.5,3,2,4.6c0.6,1.7-0.7,1.4-1.6,1.5c-5.8,0.7-7-0.9-5.5-7.1
		C376.6,552.7,374.7,555.3,376.7,556z"/>
	<path class="st10" d="M252.8,556.5c-0.3-1.7-2.5-3.2-0.7-5.3c0.8,6.8,7,0.7,9.3,4.2c-2.4,2.9-6.1,2.9-9.3,3.6
		c-1.2,0.3-2.7-0.2-0.5-1.5c0.6,0.3,1.2,0.5,1.6-0.2C253.3,557.2,253,556.8,252.8,556.5z"/>
	<path class="st10" d="M497.6,550.7c1.5,2.1-1.2,8.3,5,4.2c-1.7,4.2-5.1,3.7-8,3.1c-3.1-0.6-1.5-3.7-2.1-5.6
		C493.9,554.9,493.9,554.9,497.6,550.7z"/>
	<path class="st10" d="M129.6,552.4c1.5,2.3,1.5,2.3,4.9-1.4c2.1,0.9-1.4,8.6,5.3,3.8c-1.9,4.3-5.2,3.9-8.2,3.3
		C128.5,557.4,130.3,554.3,129.6,552.4z"/>
	<path class="st10" d="M263.9,556.2c-1.4-2.1-0.7-3.2,1.8-3.2c2.2,0,3.4,1.1,3.3,3.3c-0.2,2.5-2.3,3.3-4.2,3.2
		C262.3,559.4,263,557.7,263.9,556.2z"/>
	<path class="st10" d="M177.2,428.9c0,0.4,0,0.8,0,1.2c-0.8,2.3,0.9,5-1.2,7c0-11.4,0-22.7,0-34.1c1.8,1.2,1,3,1,4.5
		C177.1,414.6,177.1,421.8,177.2,428.9z"/>
	<path class="st3" d="M55.2,373.1c-0.6,0.3-1.1,0.6-1.7,0.9c-4.9,0-9.8,0-14.7,0c-0.3-0.3-0.6-0.6-0.9-0.9
		C43.6,373.1,49.4,373.1,55.2,373.1z"/>
	<path class="st4" d="M407.1,556.9c0-1.2,0-2.5,0-3.7C408.5,554.4,408.5,555.6,407.1,556.9z"/>
	<path class="st4" d="M44.1,556.9c0-1.2,0-2.5,0-3.7C45.5,554.4,45.5,555.6,44.1,556.9z"/>
	<path class="st4" d="M287.1,556.9c0-1.2,0-2.5,0-3.7C288.5,554.4,288.5,555.6,287.1,556.9z"/>
	<path class="st7" d="M175,438c0.3-0.3,0.7-0.7,1-1C176,437.7,175.7,438.1,175,438z"/>
	<path class="st7" d="M174,439c0.3-0.3,0.7-0.7,1-1C175,438.7,174.7,439,174,439z"/>
	<path class="st4" d="M544.1,319c0.2-0.3,0.5-0.7,0.7-1c0.4-1-0.2-1.9-0.5-2.8c-0.7-1.9-0.3-3.6,1.4-4.8c1.5-1,3.2-1,4.6,0
		c1.7,1.1,2,2.9,1.5,4.8c-0.3,0.9-0.4,1.8-0.7,2.8c0.1,0.4,0.2,0.7,0.3,1.1c3.9,10.8,7.8,21.7,11.7,32.5c-0.7,0.3-1.4,0.5-2.1,0.7
		c-4.2-11.4-8.4-22.7-12.5-34.1c-0.4,0-0.9,0.1-1.3,0.1c-4.8,10-9.6,20-14.4,30c-0.7-0.3-1.3-0.7-2-1
		C535.2,337.8,539.7,328.4,544.1,319z"/>
	<path class="st8" d="M472.1,430.1c2.4,7.7-0.3,12.4-7.9,13.9c0,0-0.3,0-0.3,0c0-2,0.1-3.9,0.1-5.9c0-8,0-8,8-8.3L472.1,430.1z"/>
	<path class="st4" d="M478.3,380.3c0.3-0.8,0.6-1.5,0.9-2.3c3,0.7,4.1-1.8,5.7-3.3c1.4-0.5,2.8-0.5,4.2,0c1.2,1,2.1,2.3,4.2,2.3
		c5.8-0.2,11.6-0.2,17.5-0.2c2.1,0,2.9-1.2,3.7-2.8c1.2-0.3,2.7,0.2,3.6-1c3.7-7.5,7.5-14.9,11.2-22.4c0.7,0.3,1.3,0.7,2,1
		c-3.4,7.1-6.7,14.2-10.1,21.3c-0.2,0.3-0.3,0.6-0.3,0.9c-1.1,1.3,0.4,2.4,0.3,3.7c-0.2,3.1-3.2,5.4-5.4,3.7
		c-3.9-3.1-8-2.4-12.2-2.1c-5.1,0.3-10.6-1.8-15,2.7c-0.8,0.8-2.8,0.7-3.7-0.3C482.8,379.4,480.5,380.3,478.3,380.3z"/>
	<path class="st3" d="M520.7,373.8c0.1-0.3,0.2-0.6,0.3-0.9c15.7,0,31.3,0,47,0c0.2,0.2,0.3,0.5,0.3,0.8
		C552.5,373.8,536.6,373.8,520.7,373.8z"/>
	<path class="st7" d="M472,429.8c-7.9,0.3-7.9,0.3-8,8.3c0,2-0.1,3.9-0.1,5.9c0,0-0.4,0-0.4,0s-0.4,0-0.4,0c0-3.6-0.1-7.1-0.1-10.7
		c0-2.1-0.4-3.6-2.9-3.4c2.4-2.9,2.6-6.6,3.7-9.9c0.1,1.6,0.2,3.2,0.3,4.9c-0.9,5.7,3.1,4,6,4c0.6,0.1,1.2,0.2,1.8,0.3
		C471.9,429.4,472,429.6,472,429.8z"/>
	<path class="st8" d="M470.1,428.9c-2.9,0-6.9,1.7-6-4C467.1,424.9,469.5,425.6,470.1,428.9z"/>
	<path class="st0" d="M177.2,428.9c-0.1-7.1-0.1-14.3-0.2-21.4c0-1.5,0.8-3.4-1-4.5c0,0,0.1,0.1,0.1,0.1c0-0.7-0.3-1-1-1
		c0,0,0,0,0,0c-1-4-4.3-2.9-6.9-2.9c-26.7-0.1-53.5,0-80.2,0c-6.8,0-13.6,0-20.4,0c1.5-6.3,5.3-11.6,7.5-17.6c2.2-6.3,6-9,12.5-7.9
		c5.6,4.9,6.5,4.9,9.7,0.6c32.4,0,64.8,0,97.3,0c34.6,0,69.2-0.1,103.7-0.1c2.1,1.3,3.7,2.8,4.5,5.4c0.4,1.4,1.8,3.7,3.9,2.8
		c1.5-0.6,3.6-1.8,2.8-4.4c-0.5-1.6,0.6-2.8,1.4-4c1.2,0.1,2.3,0.2,3.5,0.2c40.6,0,81.3,0,121.9,0c5.7,18.3,11.3,36.7,17,55
		c-89.6,0-179.2,0-268.8,0C181.9,429,179.5,428.9,177.2,428.9z"/>
	<path class="st2" d="M80.9,369.8c4.2-8.7,8.3-17.4,12.5-26.1c1.2-2.5,3.3-4,6-4.9c5.8-2.1,11.5-4.4,17.2-6.6
		c6.9-2.6,7.8-2.4,12.2,3.3c1.1,1.4,2.2,2.9,3.2,4.4c-2,0.8-3.8,1.4-6.1-0.1c-2.9-1.9-5.7-0.4-5.8,2.8c-0.1,3.4-2.1,5-4,7
		c-5.1,5.4-10.3,10.9-15.3,16.3c2.7,0.5,3.7-2.1,5.3-3.6c8.3-8.1,16.2-16.6,27.5-20.4c5.1,6.3,10.2,12.7,15.4,19
		c0.5,0.6,1.5,1.4,1.4,2c-0.4,2.8,1.1,5,3.2,5.3c2.4,0.3,3.1-3,4.6-4.5c6.3-6.4,12.9-12.5,19.4-18.6c0.5-0.5,1.1-0.8,1.5-1.3
		c5.6-6.6,9.5-5.8,16.7-0.6c4.7,4.9,11.1,9.1,13.6,15c2.9,6.7,4.3,7.2,11.5,5.2c6.7-1.9,15.4-3.2,22.5,1.8c0.5,0.3,1.5,0.6,1.9,0.3
		c5.4-3.6,10.6-0.4,15.7,0.6c4.5,0.9,9.6,0.4,12.7,5.3c0.8,1.3,3.8,1.2,4.5-0.2c1.9-4.3,6.3-4.4,9.6-6.3c3,2.7,6.1,5.4,9.1,8
		c-66.6,0-133.3,0-199.9,0c0.1-3.6-3-4.7-4.8-3.5C88.3,371.9,84.7,370.2,80.9,369.8z"/>
	<path class="st0" d="M357.9,319c35,0,70,0.1,105,0.1c0,17.6,0.1,35.3,0.1,52.9c-1.7,0.4-3.3,0.7-5,1.1c-5.1,0-10.1,0-15.2,0
		c-1.2-0.5-2.5-0.9-3.7-1.4c-2.7-9-6.3-17.8-7.9-27.2c-0.3-1.6-1.4-2.8-2.7-3.3c-1.5-0.7-2.4,0.9-3.2,1.8
		c-6.8,8.3-16.8,12.2-24.9,18.7c-1.7,1.4-3.2,0.1-4.3-1.1c-8.1-9.4-16.6-18.7-24.1-28.6c-2.2-3-3.9-5.5-7.4-7.2
		C362,323.7,360.1,321,357.9,319z"/>
	<path class="st0" d="M544.1,319c-4.4,9.4-8.9,18.8-13.4,28.3c-4.2-1.9-8.5-3.8-11.7-7.3c-1.1-1.2-1.8-1.6-3.7-0.6
		c-8.7,4.7-17.9,7.8-27.9,7.7c-2.1,0-3.9,1.8-3.6,3.4c1.3,8.1-4.3,14.2-6.1,21.3c-0.4,1.6-0.5,3.7-1.9,5.2c-0.3,0.5-0.6,0.9-0.9,1.4
		c-0.6,0.2-1.3,0.3-1.9,0.5c-1.3-2.1-2.1-4.7-5.1-4.9c-1-1.4-2.6-1.4-4-1.9c0-16.1,0.1-32.3,0-48.4c0-3.8,1.2-4.8,4.8-4.7
		C493.9,319,519,319,544.1,319z"/>
	<path class="st0" d="M369,334.8c6.9,8.1,13.9,16.3,20.8,24.4c1.9,2.2,3.2,4.5,4,7.3c-2,2.8-0.2,4.6,1.6,6.3
		c-28.2,0-56.3,0.1-84.5,0.1c3.4-8.5,6.8-16.9,10.3-25.4c0.3-0.2,0.5-0.5,0.8-0.7c0,0-0.1,0.1-0.1,0.1c5.7-2.7,9.5-8.9,16.7-8.6
		c0.5,0,1.2-0.7,1.5-1.2c1.2-2,3.2-2,5.2-2.3C353.2,333.9,361.1,331.9,369,334.8z"/>
	<path class="st2" d="M529.2,350.6c-3.7,7.5-7.5,14.9-11.2,22.4c-12.3,0-24.6,0-36.9-0.1c2-5.8,4.1-11.6,6.1-17.4
		c1-2.7,2.7-4.3,5.6-5c6.3-1.6,12.4-3.6,18.7-5.2C518.4,343.7,523.9,346.9,529.2,350.6z"/>
	<path class="st2" d="M568,373c-15.7,0-31.3,0-47,0c3.4-7.1,6.7-14.2,10.1-21.3c5.2,2.6,10.7,4.7,14.8,9c1.2,1.3,2.2,1.7,3.7,0.3
		c3.5-3.1,8-3.8,12.3-5.1C564,361.6,566,367.3,568,373z"/>
	<path class="st2" d="M137.8,341.2c3.1-0.8,6.1-1.5,9.2-2.3c1.8-0.5,3.3-1,5.1,0.4c1.6,1.3,3.3,0.5,5-0.7c7.5-5.2,16.2-5.1,24.8-5.4
		c0.2,0,0.4,0.5,0.7,0.7c-1.2,3.8-4.1,6.2-6.9,8.8c-5.9,5.5-11.9,11.1-17.7,16.7c-2.3,2.2-4.2,2.3-6.2-0.3
		C147.1,353.2,142.4,347.2,137.8,341.2z"/>
	<path class="st2" d="M532.8,348.3c4.8-10,9.6-20,14.4-30c0.4,0,0.9-0.1,1.3-0.1c4.2,11.4,8.4,22.7,12.5,34.1
		C550.5,358.8,541.5,354.6,532.8,348.3z"/>
	<path class="st2" d="M463.2,411.1c-1.4,5.7-3.7,10.9-7,16.4c-5.4-17.6-10.7-35.3-16.1-52.9c5.6,2.7,11.5,4.8,14,11.3
		c1.1,4.9,5,5.6,9,6.1C463.1,398.4,463.1,404.7,463.2,411.1z"/>
	<path class="st2" d="M352.1,318.9c3.7,3.6,9.1,5.5,11,10.9c-4.2,1.6-8.7,1.7-13.1,2.2c-3.9,0.4-7.9,2.1-11.9-0.8
		c-1.7-1.3-4.5,0-4.9,2.6c-0.9,5.3-5.2,6.5-9.2,8.2c2.1-8.1,6-15.4,9.1-23C339.4,319,345.7,319,352.1,318.9z"/>
	<path class="st4" d="M288,364.9c-3.3,2-7.7,2-9.6,6.3c-0.6,1.4-3.7,1.4-4.5,0.2c-3.1-4.9-8.2-4.4-12.7-5.3
		c-5.1-1-10.3-4.3-15.7-0.6c-0.4,0.3-1.4,0.1-1.9-0.3c-7.1-5.1-15.8-3.7-22.5-1.8c-7.2,2-8.6,1.5-11.5-5.2
		c-2.6-5.9-8.9-10.1-13.6-15c2-0.7,3.3,0.8,5,1.4c4.7,5.2,8.5,10.7,15.6,13.7c8,3.3,15.6,1.1,23.4,1.9c1.2,0.1,1.9-1.2,2.6-2.1
		c1.6,1.3,3.3,1.3,5,0c1.1,2.5,3,3.8,5.8,4c7.7,0.6,14.7,4.8,23.1,2.6c2.7-0.7,6.7,0.1,9.9-1.4C286.8,363.8,287.4,364.4,288,364.9z"
		/>
	<path class="st2" d="M400.2,366.6c7.8-6.8,16.7-12,25.1-17.8c2.3-1.6,3.2-0.2,3.8,2c1.7,6.1,3.6,12.1,5.4,18.1
		c-1.2-0.6-2.1-1.3-2.7-2.7c-1.5-3.6-4-4.2-7-1.5c-0.6,0.5-1.3,1.4-1.9,1.4C415.3,366.3,407.8,368.1,400.2,366.6z"/>
	<path class="st2" d="M47,381.1c4-2.4,8-4.8,12-7.2c5.3,0,10.6,0.1,15.9,0.1c-2.6,5.4-5.3,10.7-7.7,16.1c-1.4,3.2-3.2,3.3-5.7,1.4
		C56.6,388.1,51.8,384.6,47,381.1z"/>
	<path class="st2" d="M286.3,363.2c-3.2,1.5-7.2,0.7-9.9,1.4c-8.4,2.2-15.4-2-23.1-2.6c-2.7-0.2-4.6-1.6-5.8-4
		c9.6-1.6,19.2-4.2,29.1-2C281,356.9,282.9,361,286.3,363.2z"/>
	<path class="st2" d="M242.5,358c-0.7,1-1.4,2.3-2.6,2.1c-7.7-0.8-15.4,1.5-23.4-1.9c-7.2-3-11-8.6-15.6-13.7
		c4.3,2,9.2,2.9,12.6,6.6c1.6,1.8,3-0.4,4.5-0.1c7.8,1.9,15.6,3.9,23.4,5.9C241.9,357.1,242.2,357.6,242.5,358z"/>
	<path class="st3" d="M97.2,373c66.6,0,133.3,0,199.9,0c0.4,0.3,0.7,0.6,1.1,0.9c-34.6,0-69.2,0.1-103.7,0.1c-32.4,0-64.8,0-97.3,0
		C97.1,373.7,97.2,373.3,97.2,373z"/>
	<path class="st2" d="M292.5,364c4.1-1.8,7.8-4.9,12.9-3.1c1.9,0.7,3.9-0.5,4.3-2.5c0.6-3.3,3-4.5,5.4-5.9c-1.7,7.3-5.3,13.8-8,20.6
		c-0.9,2.2-1.8,2.3-3.6,0.8C299.7,370.6,295.7,367.7,292.5,364z"/>
	<path class="st4" d="M324,342.1c3.9-1.7,8.3-2.9,9.2-8.2c0.4-2.6,3.1-3.9,4.9-2.6c4,2.9,7.9,1.2,11.9,0.8c4.4-0.5,8.9-0.6,13.1-2.2
		c1.6,2.1,4.7,2.4,5.9,5c-7.9-2.9-15.7-0.9-23.6,0.1c-2,0.3-4,0.3-5.2,2.3c-0.3,0.5-1,1.2-1.5,1.2c-7.3-0.3-11.1,6-16.7,8.6
		c-0.3-1.4,0.4-2.4,1.1-3.5C323.6,343.2,324.2,342.9,324,342.1L324,342.1z"/>
	<path class="st4" d="M400.2,366.6c7.6,1.5,15.1-0.2,22.7-0.5c0.7,0,1.3-0.9,1.9-1.4c3-2.7,5.5-2.1,7,1.5c0.6,1.4,1.5,2.1,2.7,2.7
		c0.3,1,0.7,2,1,3c-4.2-2.8-9.2-1.3-13.9-2.7c-5-1.5-10.9,0.1-16.4,0.3c-2.8,0.1-5.1,1.2-6.7,3.6c-1,0-2.1,0-3.1-0.1
		c-1.8-1.8-3.6-3.6-1.6-6.3C395.9,369,398.1,369,400.2,366.6z"/>
	<path class="st11" d="M463,392c-4-0.5-7.9-1.2-9-6.1c1.3,0.1,2.8,0.5,3.8-0.4c4.7-4.6,10.9-3.3,16.5-4.5c-0.9,2.7-1.9,5.4-2.8,8
		c-2.6,0.8-4.5,3.4-7.5,3C463.7,392,463.3,392,463,392z"/>
	<path class="st4" d="M133.8,341.9c-11.4,3.9-19.3,12.4-27.5,20.4c-1.5,1.5-2.6,4.1-5.3,3.6c5.1-5.4,10.2-10.8,15.3-16.3
		c1.9-2,3.9-3.6,4-7c0.1-3.2,2.9-4.7,5.8-2.8c2.3,1.5,4,0.9,6.1,0.1C132.6,340.6,133.2,341.3,133.8,341.9z"/>
	<path class="st4" d="M474.3,381c-5.6,1.2-11.8-0.1-16.5,4.5c-1,0.9-2.5,0.5-3.8,0.4c-2.4-6.5-8.4-8.7-14-11.3
		c-0.5-0.9-1.1-1.7-0.9-2.8c1.2,0.5,2.5,0.9,3.7,1.4c0.6,0.3,1.3,0.6,1.9,0.9c3.2,1.7,5.6,5.7,10.2,3.8c2.9-0.3,4.8,3.5,8,2
		c0.3,0,0.7,0,1-0.1c3-0.3,6-0.6,9-0.9c0.6-0.2,1.3-0.3,1.9-0.5c0.2,0.1,0.3,0.2,0.5,0.2C475.1,379.4,474.7,380.2,474.3,381z"/>
	<path class="st3" d="M395.4,372.9c1,0,2.1,0,3.1,0.1c12.4,0,24.9,0,37.3,0c0.1,0.3,0.1,0.7,0.2,1c-40.6,0-81.3,0-121.9,0
		c-1.2,0-2.3-0.2-3.5-0.2c0.1-0.3,0.2-0.5,0.3-0.7C339.1,373,367.3,372.9,395.4,372.9z"/>
	<path class="st2" d="M435.8,372.9c-12.4,0-24.9,0-37.3,0c1.6-2.4,3.9-3.5,6.7-3.6c5.5-0.2,11.4-1.7,16.4-0.3
		c4.6,1.4,9.7-0.1,13.9,2.7C435.6,372.2,435.7,372.6,435.8,372.9z"/>
	<path class="st2" d="M333.7,318c5.1-14,3.2-11.7,12.9-3.9c1.5,1.2,2.9,2.6,4.3,4C345.1,318,339.4,318,333.7,318z"/>
	<path class="st4" d="M97.2,373c0,0.4,0,0.7,0,1.1c-3.2,4.4-4.1,4.3-9.7-0.6c-2.1-0.4-4.1-0.7-6.1-1.2c-1.6-0.4-1.5-1.4-0.4-2.4
		c3.8,0.4,7.4,2.1,11.4-0.4C94.2,368.3,97.2,369.4,97.2,373z"/>
	<path class="st2" d="M464,392c3.1,0.4,4.9-2.2,7.5-3c-2.3,6.5-4.2,13.2-7.4,19.3C464,402.9,464,397.5,464,392z"/>
	<path class="st2" d="M38.7,374c4.9,0,9.8,0,14.7,0c-2.3,2.4-5.5,3.6-8.2,5.4C42.6,378.2,39.6,377.4,38.7,374z"/>
	<path class="st3" d="M481.1,373c12.3,0,24.6,0,36.9,0.1c-0.9,1.2-2.4,0.8-3.6,1c-8.4,0.3-16.9-0.9-25.3,0.7c-1.4-0.5-2.8-0.5-4.2,0
		c-1.2-1.2-2.7-0.6-4-0.8C480.9,373.6,481,373.3,481.1,373z"/>
	<path class="st2" d="M60.8,372.9c5-1.2,9.9-4,15.4-1.8c-0.3,0.6-0.7,1.3-1,1.9C70.4,373.1,65.6,373,60.8,372.9z"/>
	<path class="st3" d="M333.7,318c5.7,0,11.5,0,17.2,0c0.4,0.3,0.8,0.6,1.2,0.9c-6.3,0-12.6,0.1-19,0.1
		C333.3,318.7,333.5,318.3,333.7,318z"/>
	<path class="st7" d="M464,392c0,5.4,0.1,10.9,0.1,16.3c0,1,0,2-0.9,2.7c0-6.4-0.1-12.7-0.1-19.1C463.3,392,463.7,392,464,392z"/>
	<path class="st3" d="M60.8,372.9c4.8,0.1,9.6,0.1,14.4,0.2c-0.1,0.3-0.2,0.6-0.3,1c-5.3,0-10.6-0.1-15.9-0.1
		C59.6,373.6,60.2,373.3,60.8,372.9z"/>
	<path class="st2" d="M480.9,373.9c1.3,0.3,2.9-0.4,4,0.8c-1.7,1.5-2.7,4-5.7,3.3C479.8,376.7,480.3,375.3,480.9,373.9z"/>
	<path class="st4" d="M322,346.9c-0.3,0.2-0.5,0.5-0.8,0.7C321.5,347.4,321.8,347.2,322,346.9z"/>
	<path class="st2" d="M324,342c0.2,0.9-0.4,1.2-1,1.5C323.1,342.8,323.3,342.2,324,342z"/>
	<path class="st2" d="M475.5,378.6c-0.2,0-0.4-0.1-0.5-0.2c0.3-0.4,0.6-0.9,0.9-1.4C475.7,377.6,475.6,378.1,475.5,378.6z"/>
	<path class="st2" d="M451.1,539.9c0-16.9,0-33.9-0.2-50.8c0-2.9,0.7-4.1,3.9-4.2c8.2-0.1,8.2-0.3,8.2,7.8c0,15.8,0,31.6-0.1,47.3
		C459,539.9,455,539.9,451.1,539.9z"/>
	<path class="st11" d="M116.7,416.1c-0.2,0.2-0.4,0.5-0.7,0.5c-0.6,0-0.8-0.4-0.6-0.9c0.1-0.2,0.6-0.4,0.8-0.3
		C116.4,415.5,116.5,415.8,116.7,416.1z"/>
	<path class="st7" d="M175,402c0.7,0,1,0.3,1,1C175.7,402.6,175.3,402.3,175,402z"/>
	<path class="st4" d="M370.1,543c23.8,0,47.6-0.1,71.4-0.1c1.2,0,2.7-0.5,3.6,1c-24,0-47.9,0.1-71.9,0.1
		C372,544,370.8,544.4,370.1,543z"/>
	<path class="st4" d="M448,539.9c0-17.3,0-34.6,0.1-51.9c1.3,0.7,1,2,1,3.1c0,15.3,0,30.5,0,45.8C449,538,449.4,539.3,448,539.9z"/>
	<path class="st7" d="M464,379.8c-0.3,0-0.7,0-1,0.1c0.4-3.7,0.1-6.8-5-5.9c0-0.3,0-0.5,0-0.8c1.7-0.4,3.3-0.7,5-1.1
		c0.3,0,0.6,0,1,0c1.4,0.6,3,0.6,4,1.9C462.8,373.3,464.2,377.1,464,379.8z"/>
	<path class="st12" d="M384.8,245.8c-0.4,1.4-1.2,2.3-2.7,2.2c-1.8-0.1-1.1-1.6-1.2-2.6c-0.1-0.9-0.1-2.2,1.3-2
		C383.6,243.5,384.7,244.1,384.8,245.8z"/>
	<path class="st0" d="M167,556c-0.5,0.7-1.1,1-1.9,0.8c-0.1,0-0.2-0.2-0.2-0.4C165.5,556.3,166.3,556.1,167,556
		C167,556,167,556,167,556z"/>
	<path class="st0" d="M158,555c0.2,0.4,0.5,0.7,0.7,1.1c-0.1,0.1-0.2,0.2-0.4,0.3C158.2,555.9,158.1,555.4,158,555
		C158,555,158,555,158,555z"/>
	<path class="st0" d="M530,556c-0.5,0.7-1.1,1-1.9,0.8c-0.1,0-0.2-0.2-0.2-0.4C528.5,556.3,529.3,556.1,530,556
		C530,556,530,556,530,556z"/>
	<path class="st0" d="M521,555c0.2,0.4,0.5,0.7,0.7,1.1c-0.1,0.1-0.2,0.2-0.4,0.3C521.2,555.9,521.1,555.4,521,555
		C521,555,521,555,521,555z"/>
	<path class="st0" d="M252.8,556.5c0.1,0.3,0.5,0.6,0.4,0.8c-0.4,0.7-1,0.5-1.6,0.2C252,557.2,252.4,556.9,252.8,556.5z"/>
	<path class="st2" d="M489.1,374.7c8.4-1.6,16.9-0.4,25.3-0.7c-0.7,1.6-1.6,2.8-3.7,2.8c-5.8,0-11.7,0-17.5,0.2
		C491.2,377.1,490.3,375.8,489.1,374.7z"/>
	<path class="st3" d="M458.1,373.1c0,0.3,0,0.5,0,0.8c-0.7,0-1.3,0.1-2,0.1c-3.8,0-7.5,0-11.3,0c-0.6-0.3-1.3-0.6-1.9-0.9
		C447.9,373.1,453,373.1,458.1,373.1z"/>
	<path class="st11" d="M464,379.8c0.1-2.7-1.2-6.4,3.9-5.8c3,0.3,3.8,2.9,5.1,4.9C470,379.2,467,379.5,464,379.8z"/>
	<path class="st11" d="M456,374c0.7,0,1.3-0.1,2-0.1c5-0.8,5.3,2.3,5,5.9c-3.2,1.5-5.1-2.3-8-2C455.3,376.5,455.7,375.3,456,374z"/>
	<path class="st9" d="M456,374c-0.4,1.3-0.7,2.5-1.1,3.8c-4.6,2-7-2.1-10.2-3.8C448.5,374,452.3,374,456,374z"/>
	<path class="st12" d="M387.2,510.7c2.1-1,2.2,0.9,3.1,1.5C388.8,512.8,387.9,512.2,387.2,510.7z"/>
</g>
</svg>
