<?xml version="1.0" encoding="utf-8"?>
<!-- Generator: Adobe Illustrator 20.0.0, SVG Export Plug-In . SVG Version: 6.00 Build 0)  -->
<svg version="1.1" id="Layer_1" xmlns="http://www.w3.org/2000/svg" xmlns:xlink="http://www.w3.org/1999/xlink" x="0px" y="0px"
	 viewBox="0 0 900 560" style="enable-background:new 0 0 900 560;" xml:space="preserve">
<style type="text/css">
	.st0{fill:none;stroke:#CFD8DC;stroke-width:2;stroke-linecap:round;stroke-linejoin:round;stroke-miterlimit:10;}
	.st1{fill:#26C6DA;}
	.st2{fill:#0097A7;}
	.st3{fill:#00838F;}
</style>
<g>
	<g>
		<g>
			<g>
				<line class="st0" x1="38.8" y1="122.6" x2="725" y2="122.6"/>
			</g>
			<g>
				<line class="st0" x1="38.8" y1="198.8" x2="725" y2="198.8"/>
			</g>
			<g>
				<line class="st0" x1="38.8" y1="275" x2="725" y2="275"/>
			</g>
			<g>
				<line class="st0" x1="38.8" y1="351.2" x2="725" y2="351.2"/>
			</g>
			<g>
				<line class="st0" x1="38.8" y1="427.4" x2="725" y2="427.4"/>
			</g>
			<g>
				<line class="st0" x1="38.8" y1="503.6" x2="725" y2="503.6"/>
			</g>
		</g>
		<g>
			<line class="st0" x1="25" y1="503.6" x2="25" y2="46.4"/>
		</g>
	</g>
</g>
<path class="st1" d="M83.2,502.5c18.3-16.3,51.3-158.8,68.2-158.8c16.9,0,49.9,142.6,68.2,158.8c0.8,0.7,1.6,1.1,2.4,1.1h-70.6H80.8
	L83.2,502.5z"/>
<path class="st1" d="M575.2,71.4c17.7,0,53,432.2,70.6,432.2h-70.6h-70.6C522.3,503.6,557.6,71.4,575.2,71.4z"/>
<path class="st2" d="M422.3,204.5c17.7,0,53,299.1,70.6,299.1H351.6C369.3,503.6,404.6,204.5,422.3,204.5z"/>
<path class="st2" d="M163.5,503.1c16.6-7.1,46.6-153.6,61.9-153.6c15.3,0,45.3,146.5,61.9,153.6c0.8,0.3,1.5,0.5,2.2,0.5h-64.1
	h-64.1L163.5,503.1z"/>
<path class="st2" d="M609.7,427.3c16,0,48,76.2,64.1,76.2h-64.1h-64.1C561.6,503.6,593.6,427.3,609.7,427.3z"/>
<path class="st1" d="M355.8,277.8c16,0,48,225.7,64.1,225.7H291.7C307.8,503.6,339.8,277.8,355.8,277.8z"/>
<path class="st3" d="M292.7,220.8c-17.7,0-53,282.7-70.6,282.7h141.3C345.7,503.6,310.4,220.8,292.7,220.8z"/>
<path class="st3" d="M481.6,292.3c-16,0-48,211.3-64.1,211.3h128.1C529.6,503.6,497.6,292.3,481.6,292.3z"/>
</svg>
